<svg xmlns="http://www.w3.org/2000/svg" height="40" viewBox="0 96 960 960" width="40"><path d="M353.274 896Q323 896 301.5 874.441T280 822.608q0-30.274 21.559-51.774t51.833-21.5q30.274 0 51.774 21.559t21.5 51.833q0 30.274-21.559 51.774T353.274 896Zm253.334 0q-30.274 0-51.774-21.559t-21.5-51.833q0-30.274 21.559-51.774t51.833-21.5q30.274 0 51.774 21.559t21.5 51.833Q680 853 658.441 874.5T606.608 896ZM353.274 649.333q-30.274 0-51.774-21.559T280 575.941q0-30.274 21.559-51.774t51.833-21.5q30.274 0 51.774 21.559t21.5 51.833q0 30.274-21.559 51.774t-51.833 21.5Zm253.334 0q-30.274 0-51.774-21.559t-21.5-51.833q0-30.274 21.559-51.774t51.833-21.5q30.274 0 51.774 21.559t21.5 51.833q0 30.274-21.559 51.774t-51.833 21.5ZM353.274 402.666q-30.274 0-51.774-21.559T280 329.274Q280 299 301.559 277.5t51.833-21.5q30.274 0 51.774 21.559t21.5 51.833q0 30.274-21.559 51.774t-51.833 21.5Zm253.334 0q-30.274 0-51.774-21.559t-21.5-51.833q0-30.274 21.559-51.774t51.833-21.5Q637 256 658.5 277.559t21.5 51.833q0 30.274-21.559 51.774t-51.833 21.5Z"/></svg>