<svg xmlns="http://www.w3.org/2000/svg" height="40" viewBox="0 96 960 960" width="40"><path d="m622 767.333 48.667-48.666-155.334-156V367.333h-66.666v222l173.333 178ZM480 976q-82.333 0-155.333-31.5t-127.334-85.833Q143 804.333 111.5 731.333T80 576q0-82.333 31.5-155.333t85.833-127.334Q251.667 239 324.667 207.5T480 176q82.333 0 155.333 31.5t127.334 85.833Q817 347.667 848.5 420.667T880 576q0 82.333-31.5 155.333t-85.833 127.334Q708.333 913 635.333 944.5T480 976Zm0-400Zm0 333.334q137.667 0 235.5-97.834 97.834-97.833 97.834-235.5T715.5 340.5q-97.833-97.834-235.5-97.834T244.5 340.5q-97.834 97.833-97.834 235.5T244.5 811.5q97.833 97.834 235.5 97.834Z"/></svg>